<?xml version="1.0" encoding="UTF-8" standalone="no"?>
<!DOCTYPE svg PUBLIC "-//W3C//DTD SVG 1.1//EN" "http://www.w3.org/Graphics/SVG/1.1/DTD/svg11.dtd">
<svg version="1.1" xmlns="http://www.w3.org/2000/svg" xmlns:xlink="http://www.w3.org/1999/xlink" preserveAspectRatio="xMidYMid meet" viewBox="0 0 640 640" width="640" height="640"><defs><path d="M579.61 340.31C577.77 363.89 582.99 398.59 592.87 421.61C625.62 497.96 619.54 570.38 542.63 598.6C488.81 618.35 424.33 605.65 390.45 596.25C377.41 592.63 369.52 579.76 372.12 566.69C383.92 507.49 376.43 461.38 341.89 433.66C344.08 432.49 355.02 426.63 374.72 416.07L376.73 342.36C411.99 342.45 431.58 342.5 435.49 342.51C435.49 342.51 455.26 324.54 480.87 317.04C510.82 308.31 542.28 312.51 562.24 317.14C573.06 319.64 580.47 329.42 579.61 340.31Z" id="fMxJAOjYn"></path><path d="M340.68 65.36C364.71 67.17 400.05 62.04 423.49 52.34C501.26 20.19 575.02 26.16 603.76 101.67C623.88 154.51 610.95 217.82 601.37 251.08C597.69 263.88 584.58 271.63 571.27 269.08C510.97 257.49 464 264.84 435.77 298.75C434.58 296.6 428.6 285.86 417.85 266.53L342.78 264.55C342.87 229.93 342.92 210.7 342.93 206.86C342.93 206.86 324.63 187.45 316.99 162.31C308.11 132.9 312.4 102.02 317.09 82.41C319.63 71.8 329.59 64.52 340.68 65.36Z" id="a3t8BsBTcY"></path><path d="M60.26 299.69C62.1 276.11 56.88 241.41 47 218.39C14.26 142.04 20.33 69.62 97.24 41.4C151.06 21.65 215.55 34.35 249.43 43.75C262.46 47.37 270.35 60.24 267.76 73.31C255.96 132.51 263.44 178.62 297.98 206.34C295.79 207.51 284.85 213.37 265.16 223.93L263.14 297.64C227.89 297.55 208.3 297.5 204.38 297.49C204.38 297.49 184.62 315.46 159 322.96C129.06 331.67 97.6 327.46 77.63 322.86C66.82 320.36 59.41 310.58 60.26 299.69Z" id="bPq7aWIp"></path><path d="M299.32 575.31C275.29 573.5 239.95 578.62 216.51 588.33C138.74 620.48 64.98 614.51 36.24 539C16.12 486.16 29.05 422.85 38.63 389.58C42.31 376.79 55.42 369.04 68.73 371.59C129.03 383.17 176 375.82 204.23 341.92C205.42 344.06 211.4 354.81 222.15 374.14L297.22 376.12C297.13 410.74 297.08 429.97 297.07 433.81C297.07 433.81 315.37 453.22 323.01 478.36C331.89 507.77 327.6 538.65 322.91 558.25C320.37 568.87 310.41 576.15 299.32 575.31Z" id="a6w68YBhkQ"></path></defs><g><g><g><use xlink:href="#fMxJAOjYn" opacity="1" fill="#a37cbc" fill-opacity="1"></use><g><use xlink:href="#fMxJAOjYn" opacity="1" fill-opacity="0" stroke="#000000" stroke-width="1" stroke-opacity="0"></use></g></g><g><use xlink:href="#a3t8BsBTcY" opacity="1" fill="#ff634a" fill-opacity="1"></use><g><use xlink:href="#a3t8BsBTcY" opacity="1" fill-opacity="0" stroke="#000000" stroke-width="1" stroke-opacity="0"></use></g></g><g><use xlink:href="#bPq7aWIp" opacity="1" fill="#fcb614" fill-opacity="1"></use><g><use xlink:href="#bPq7aWIp" opacity="1" fill-opacity="0" stroke="#000000" stroke-width="1" stroke-opacity="0"></use></g></g><g><use xlink:href="#a6w68YBhkQ" opacity="1" fill="#46c2e8" fill-opacity="1"></use><g><use xlink:href="#a6w68YBhkQ" opacity="1" fill-opacity="0" stroke="#000000" stroke-width="1" stroke-opacity="0"></use></g></g></g></g></svg>